<?xml version="1.0" encoding="utf-8"?>
<!-- Generator: Adobe Illustrator 20.1.0, SVG Export Plug-In . SVG Version: 6.00 Build 0)  -->
<svg version="1.1" id="Capa_1" xmlns="http://www.w3.org/2000/svg" xmlns:xlink="http://www.w3.org/1999/xlink" x="0px" y="0px"
	 viewBox="0 0 799.9 665.2" style="enable-background:new 0 0 799.9 665.2;" xml:space="preserve">
<style type="text/css">
	.st0{fill:#48341F;}
	.st1{fill:#7DB61A;}
</style>
<path class="st0" d="M182.5,359.8C81.6,359.3,0.1,277,0,179.6C-0.1,84.5,77.5,4.2,170.3,0.2C247.9-3.3,321.5,47.3,349,125.4
	l-77.1,26.7c-15.6-46.1-62.5-73.6-108.4-64.9c-50.9,9.6-85.2,60.7-75.6,110.7c8.3,43.2,48.3,75.9,94.8,77L182.5,359.8z"/>
<path class="st1" d="M238.6,321.6c5.6-0.3,45.5-2.9,72.2-38.1c28.1-37.1,17.4-79.1,16-84l79.6-28.7c2.5,8.9,25,93.3-28.5,163.9
	c-51.1,67.4-129.2,71.4-139.3,71.8V321.6z"/>
<g>
	<path class="st0" d="M203.7,519.6v6.8h-21.1v-6.8h5.1v-26.5h-5.1v-6.8h21.1c4.9,0,8.7,1.2,11.4,3.5c2.7,2.3,4,5.4,4,9.3
		c0,2.2-0.5,4.2-1.4,6.1c-0.9,1.8-2.1,3.2-3.6,4.2c-1.5,1-3.2,1.6-5,2s-4.3,0.5-7.1,0.5h-3.8v7.8H203.7z M198.1,505.2h1.6
		c3.6,0,5.9-0.6,6.9-1.7s1.5-2.6,1.5-4.3c0-1.5-0.4-2.7-1.1-3.7c-0.7-1-1.5-1.7-2.4-1.9s-2.4-0.4-4.5-0.4h-2V505.2z"/>
	<path class="st0" d="M252.9,520v6.4h-13.4v-2.2c-2.4,1.7-4.9,2.6-7.6,2.6c-2.8,0-5.2-0.8-7.2-2.4c-2-1.6-3-3.7-3-6.3
		c0-2.7,1.1-4.9,3.2-6.7c2.1-1.8,4.8-2.7,8.2-2.7c1.9,0,4,0.5,6.4,1.4v-1.7c0-1.4-0.5-2.6-1.4-3.5c-1-0.9-2.2-1.4-3.9-1.4
		c-2,0-3.7,0.7-5.1,2.2l-7.2-1.3c2.1-4.4,6.6-6.6,13.5-6.6c2.7,0,4.9,0.3,6.7,0.9c1.8,0.6,3.1,1.4,3.9,2.3c0.9,1,1.5,2,1.8,3.2
		c0.4,1.1,0.5,3,0.5,5.6V520H252.9z M239.5,516.1c-2.2-1.3-3.9-2-5.2-2c-1,0-1.9,0.3-2.8,0.9c-0.8,0.6-1.3,1.5-1.3,2.6
		c0,1,0.3,1.9,1,2.6c0.7,0.7,1.5,1.1,2.6,1.1c1.7,0,3.5-1,5.6-2.9V516.1z"/>
	<path class="st0" d="M274.9,520v6.4h-19.6V520h5.2v-15h-4.8v-6.4h13v7.1c0.5-2,1.6-3.8,3.4-5.3s3.9-2.2,6.3-2.2c0.4,0,0.9,0,1.4,0
		v8.4c-2.2,0-4.1,0.3-5.5,0.7c-1.4,0.5-2.6,1.6-3.5,3.3c-0.9,1.7-1.4,3.7-1.4,6v3.4H274.9z"/>
	<path class="st0" d="M296.9,532.5h5.5v-9c-2.4,2.3-5.1,3.5-8.1,3.5c-3.8,0-6.8-1.4-8.8-4.3s-3.1-6.3-3.1-10.1
		c0-3.9,1.1-7.3,3.2-10.2c2.2-2.9,5-4.3,8.6-4.3c3,0,5.8,1.3,8.2,3.9v-3.5h13.7v6.4h-4.8v27.6h4.8v6.4h-19.2V532.5z M291.4,512.4
		c0,2.4,0.5,4.3,1.4,5.6c1,1.3,2.3,2,4,2c1.5,0,2.8-0.6,3.9-1.9c1.1-1.2,1.7-3.2,1.7-5.9c0-2.3-0.5-4-1.5-5.2c-1-1.2-2.3-1.8-4-1.8
		c-1.7,0-3,0.6-4,1.8C291.9,508.3,291.4,510.1,291.4,512.4z"/>
	<path class="st0" d="M352.5,520v6.4h-13.4V524c-2.7,1.9-5.4,2.8-8.1,2.8c-2.7,0-4.8-0.8-6.3-2.3c-1.5-1.5-2.3-3.6-2.3-6.4v-13.2
		h-4.2v-6.4h13.1v17.4c0,1.4,0.2,2.3,0.6,2.8c0.4,0.5,1.2,0.8,2.3,0.8c1.5,0,3.1-0.7,4.9-2v-12.6h-4.3v-6.4H348V520H352.5z"/>
	<path class="st0" d="M378.5,518l6.9,2.2c-2.9,4.6-7.4,6.8-13.6,6.8c-4.9,0-8.8-1.3-11.5-3.9c-2.8-2.6-4.1-6-4.1-10.2
		c0-4.3,1.4-7.9,4.3-10.8c2.8-2.9,6.5-4.3,10.9-4.3c3.2,0,5.9,0.8,8.3,2.4c2.3,1.6,3.9,3.6,4.8,6c0.9,2.4,1.4,5.1,1.4,8H365
		c0.1,2.5,0.9,4.3,2.4,5.4c1.5,1.1,3,1.6,4.7,1.6C374.2,521.3,376.3,520.2,378.5,518z M376.8,509.3c-0.2-1.6-0.8-2.9-1.8-4
		c-1-1.1-2.4-1.6-4.1-1.6c-3.3,0-5.2,1.9-5.7,5.6H376.8z"/>
	<path class="st0" d="M458.5,519.6v6.8h-19.7v-6.8h5.1l-1.9-6.9h-10.4l-2.1,6.9h5.4v6.8h-17.7v-6.8h5l7.8-26.5h-5.3v-6.8h26.2v6.8
		h-5.4l8.4,26.5H458.5z M440.4,506.9l-3.3-12.1l-3.6,12.1H440.4z"/>
	<path class="st0" d="M479.6,520v6.4H460V520h5.2v-15h-4.8v-6.4h13v7.1c0.5-2,1.6-3.8,3.4-5.3s3.9-2.2,6.3-2.2c0.4,0,0.9,0,1.4,0
		v8.4c-2.2,0-4.1,0.3-5.5,0.7c-1.4,0.5-2.6,1.6-3.5,3.3c-0.9,1.7-1.4,3.7-1.4,6v3.4H479.6z"/>
	<path class="st0" d="M501.6,532.5h5.5v-9c-2.4,2.3-5.1,3.5-8.1,3.5c-3.8,0-6.8-1.4-8.8-4.3s-3.1-6.3-3.1-10.1
		c0-3.9,1.1-7.3,3.2-10.2c2.2-2.9,5-4.3,8.6-4.3c3,0,5.8,1.3,8.2,3.9v-3.5h13.7v6.4H516v27.6h4.8v6.4h-19.2V532.5z M496.1,512.4
		c0,2.4,0.5,4.3,1.4,5.6c1,1.3,2.3,2,4,2c1.5,0,2.8-0.6,3.9-1.9c1.1-1.2,1.7-3.2,1.7-5.9c0-2.3-0.5-4-1.5-5.2c-1-1.2-2.3-1.8-4-1.8
		c-1.7,0-3,0.6-4,1.8C496.6,508.3,496.1,510.1,496.1,512.4z"/>
	<path class="st0" d="M557.2,520v6.4h-13.4V524c-2.7,1.9-5.4,2.8-8.1,2.8c-2.7,0-4.8-0.8-6.3-2.3c-1.5-1.5-2.3-3.6-2.3-6.4v-13.2
		h-4.2v-6.4h13.1v17.4c0,1.4,0.2,2.3,0.6,2.8c0.4,0.5,1.2,0.8,2.3,0.8c1.5,0,3.1-0.7,4.9-2v-12.6h-4.3v-6.4h13.2V520H557.2z"/>
	<path class="st0" d="M583.2,518l6.9,2.2c-2.9,4.6-7.4,6.8-13.6,6.8c-4.9,0-8.8-1.3-11.5-3.9c-2.8-2.6-4.1-6-4.1-10.2
		c0-4.3,1.4-7.9,4.3-10.8c2.8-2.9,6.5-4.3,10.9-4.3c3.2,0,5.9,0.8,8.3,2.4c2.3,1.6,3.9,3.6,4.8,6c0.9,2.4,1.4,5.1,1.4,8h-20.8
		c0.1,2.5,0.9,4.3,2.4,5.4c1.5,1.1,3,1.6,4.7,1.6C578.9,521.3,581,520.2,583.2,518z M581.5,509.3c-0.2-1.6-0.8-2.9-1.8-4
		s-2.4-1.6-4.1-1.6c-3.3,0-5.2,1.9-5.7,5.6H581.5z"/>
	<path class="st0" d="M609.4,527c-4.1,0-7.6-1.3-10.4-3.9s-4.2-6.2-4.2-10.7c0-4.5,1.4-8.1,4.2-10.7c2.8-2.6,6.3-3.9,10.4-3.9
		c4.1,0,7.6,1.3,10.4,3.9c2.8,2.6,4.2,6.2,4.2,10.7c0,4.5-1.4,8-4.2,10.7C617,525.7,613.5,527,609.4,527z M609.3,520.1
		c1.7,0,3-0.6,4-1.9s1.5-3.3,1.5-6c0-2.4-0.5-4.2-1.5-5.6c-1-1.3-2.4-2-4.1-2c-3.7,0-5.5,2.7-5.5,8c0,2.2,0.5,4,1.4,5.4
		C606.1,519.4,607.5,520.1,609.3,520.1z"/>
	<path class="st0" d="M628.4,526.4V520h4.4v-27.2h-4.4v-6.4h13.3V520h4v6.4H628.4z"/>
	<path class="st0" d="M664.1,527c-4.1,0-7.6-1.3-10.4-3.9s-4.2-6.2-4.2-10.7c0-4.5,1.4-8.1,4.2-10.7c2.8-2.6,6.3-3.9,10.4-3.9
		c4.1,0,7.6,1.3,10.4,3.9c2.8,2.6,4.2,6.2,4.2,10.7c0,4.5-1.4,8-4.2,10.7C671.7,525.7,668.3,527,664.1,527z M664,520.1
		c1.7,0,3-0.6,4-1.9s1.5-3.3,1.5-6c0-2.4-0.5-4.2-1.5-5.6c-1-1.3-2.4-2-4.1-2c-3.7,0-5.5,2.7-5.5,8c0,2.2,0.5,4,1.4,5.4
		C660.8,519.4,662.2,520.1,664,520.1z M659.6,494.8l4.4-9.2h10.8l-10.5,9.2H659.6z"/>
	<path class="st0" d="M682.3,526.4V520h4l6-7.2l-6-7.8h-4v-6.4H693l5,7.6l5.5-7.6h8.4v6.4h-3.7l-5.6,6.7l6.6,8.3h3.7v6.4h-10.7
		l-5.4-7.8l-5.8,7.8H682.3z"/>
	<path class="st0" d="M716.7,504.9v-6.4h13.1V520h4.1v6.4h-17.3V520h4.2v-15H716.7z M720.6,490.5c0-1.3,0.5-2.5,1.4-3.4
		c1-1,2.1-1.4,3.4-1.4c1.4,0,2.5,0.5,3.5,1.4c0.9,1,1.4,2.1,1.4,3.4c0,1.3-0.5,2.5-1.4,3.4c-1,0.9-2.1,1.4-3.4,1.4
		c-1.3,0-2.5-0.5-3.4-1.4C721.1,493,720.6,491.8,720.6,490.5z"/>
	<path class="st0" d="M766,498.5v11.3h-6.3c-1.4-3.1-3.7-4.7-6.8-4.7c-2,0-3.5,0.6-4.7,1.9c-1.2,1.3-1.7,3-1.7,5.2
		c0,2.6,0.6,4.6,1.8,5.8c1.2,1.3,2.7,1.9,4.5,1.9c1.4,0,2.8-0.4,4-1.2s2.3-1.9,3.1-3.2l6.9,3c-2.6,5.6-7.1,8.4-13.5,8.4
		c-4.9,0-8.7-1.3-11.6-4c-2.9-2.7-4.3-6.2-4.3-10.6c0-4.4,1.4-7.9,4.2-10.5c2.8-2.6,6.1-3.8,9.9-3.8c3,0,5.8,0.9,8.4,2.7v-2.3H766z"
		/>
	<path class="st0" d="M785.2,527c-4.1,0-7.6-1.3-10.4-3.9s-4.2-6.2-4.2-10.7c0-4.5,1.4-8.1,4.2-10.7c2.8-2.6,6.3-3.9,10.4-3.9
		c4.1,0,7.6,1.3,10.4,3.9c2.8,2.6,4.2,6.2,4.2,10.7c0,4.5-1.4,8-4.2,10.7C792.9,525.7,789.4,527,785.2,527z M785.2,520.1
		c1.7,0,3-0.6,4-1.9s1.5-3.3,1.5-6c0-2.4-0.5-4.2-1.5-5.6c-1-1.3-2.4-2-4.1-2c-3.7,0-5.5,2.7-5.5,8c0,2.2,0.5,4,1.4,5.4
		C782,519.4,783.3,520.1,785.2,520.1z"/>
	<path class="st0" d="M216.7,590.8v6.4h-13.5v-3.3c-2.5,2.5-5.2,3.7-8.1,3.7c-3.5,0-6.4-1.4-8.6-4.2c-2.3-2.8-3.4-6.2-3.4-10.3
		c0-4.1,1.2-7.5,3.5-10.3c2.3-2.8,5.2-4.2,8.6-4.2c3.2,0,5.9,1.3,8,3.8v-8.9h-4.4v-6.4h13.3v33.6H216.7z M203.3,583.2
		c0-2.7-0.6-4.6-1.7-5.7c-1.1-1.1-2.4-1.7-3.9-1.7c-1.7,0-3.1,0.7-4,2c-1,1.4-1.4,3.1-1.4,5.3c0,2.1,0.5,3.9,1.4,5.3
		c0.9,1.4,2.3,2.1,4.1,2.1c1.5,0,2.8-0.6,3.9-1.7C202.7,587.7,203.3,585.8,203.3,583.2z"/>
	<path class="st0" d="M251.3,590.8v6.4h-13.4V595c-2.4,1.7-4.9,2.6-7.6,2.6c-2.8,0-5.2-0.8-7.2-2.4c-2-1.6-3-3.7-3-6.3
		c0-2.7,1.1-4.9,3.2-6.7c2.1-1.8,4.8-2.7,8.2-2.7c1.9,0,4,0.5,6.4,1.4v-1.7c0-1.4-0.5-2.6-1.4-3.5c-1-0.9-2.2-1.4-3.9-1.4
		c-2,0-3.7,0.7-5.1,2.2l-7.2-1.3c2.1-4.4,6.6-6.6,13.5-6.6c2.7,0,4.9,0.3,6.7,0.9c1.8,0.6,3.1,1.4,3.9,2.3c0.9,1,1.5,2,1.8,3.2
		c0.4,1.1,0.5,3,0.5,5.6v10.2H251.3z M237.9,586.9c-2.2-1.3-3.9-2-5.2-2c-1,0-1.9,0.3-2.8,0.9c-0.8,0.6-1.3,1.5-1.3,2.6
		c0,1,0.3,1.9,1,2.6c0.7,0.7,1.5,1.1,2.6,1.1c1.7,0,3.5-1,5.6-2.9V586.9z"/>
	<path class="st0" d="M302.9,557.1h6.8v14.1h-6.8c-1.9-5.1-5.3-7.6-10-7.6c-3.9,0-6.9,1.3-8.9,4c-2,2.7-3,5.9-3,9.6
		c0,3.9,1.1,7.1,3.2,9.5c2.1,2.4,4.8,3.6,8.1,3.6c2.7,0,5-0.9,7.1-2.7c2-1.8,3.4-4.4,4.1-7.6l7.9,3.8c-3,9.3-9.6,14-19.8,14
		c-7.2,0-12.6-1.9-16.3-5.8c-3.7-3.9-5.5-8.8-5.5-14.7c0-4.2,1-7.9,2.9-11.1c1.9-3.2,4.5-5.6,7.7-7.2c3.2-1.6,6.7-2.4,10.6-2.4
		c4.8,0,8.8,1.2,12,3.7V557.1z"/>
	<path class="st0" d="M348.4,590.8v6.4H335v-2.4c-2.7,1.9-5.4,2.8-8.1,2.8c-2.7,0-4.8-0.8-6.3-2.3c-1.5-1.5-2.3-3.6-2.3-6.4v-13.2
		h-4.2v-6.4h13.1v17.4c0,1.4,0.2,2.3,0.6,2.8c0.4,0.5,1.2,0.8,2.3,0.8c1.5,0,3.1-0.7,4.9-2v-12.6h-4.3v-6.4h13.2v21.5H348.4z"/>
	<path class="st0" d="M352,597.2v-6.4h4.4v-27.2H352v-6.4h13.3v33.6h4v6.4H352z"/>
	<path class="st0" d="M371.8,575.7v-6.4h3.5v-4.4l8.9-6.4v10.8h5.1v6.4h-5.1v12.1c0,1.1,0.1,1.8,0.4,2.2c0.3,0.4,0.9,0.6,1.9,0.6
		c0.8,0,1.8-0.2,2.8-0.6v6.2c-2.3,0.9-4.5,1.4-6.7,1.4c-4.9,0-7.3-2.4-7.3-7.3v-14.6H371.8z"/>
	<path class="st0" d="M426.5,590.8v6.4h-13.4v-2.4c-2.7,1.9-5.4,2.8-8.1,2.8c-2.7,0-4.8-0.8-6.3-2.3c-1.5-1.5-2.3-3.6-2.3-6.4v-13.2
		h-4.2v-6.4h13v17.4c0,1.4,0.2,2.3,0.6,2.8c0.4,0.5,1.2,0.8,2.3,0.8c1.5,0,3.1-0.7,4.9-2v-12.6h-4.3v-6.4H422v21.5H426.5z"/>
	<path class="st0" d="M449.1,590.8v6.4h-19.6v-6.4h5.2v-15h-4.8v-6.4h13v7.1c0.5-2,1.6-3.8,3.4-5.3s3.9-2.2,6.3-2.2
		c0.4,0,0.9,0,1.4,0v8.4c-2.2,0-4.1,0.3-5.5,0.7c-1.4,0.5-2.6,1.6-3.5,3.3c-0.9,1.7-1.4,3.7-1.4,6v3.4H449.1z"/>
	<path class="st0" d="M487.9,590.8v6.4h-13.4V595c-2.4,1.7-4.9,2.6-7.6,2.6c-2.8,0-5.2-0.8-7.2-2.4c-2-1.6-3-3.7-3-6.3
		c0-2.7,1.1-4.9,3.2-6.7c2.1-1.8,4.8-2.7,8.2-2.7c1.9,0,4,0.5,6.4,1.4v-1.7c0-1.4-0.5-2.6-1.4-3.5c-1-0.9-2.2-1.4-3.9-1.4
		c-2,0-3.7,0.7-5.1,2.2l-7.2-1.3c2.1-4.4,6.6-6.6,13.5-6.6c2.7,0,4.9,0.3,6.7,0.9c1.8,0.6,3.1,1.4,3.9,2.3c0.9,1,1.5,2,1.8,3.2
		c0.4,1.1,0.5,3,0.5,5.6v10.2H487.9z M474.5,586.9c-2.2-1.3-3.9-2-5.2-2c-1,0-1.9,0.3-2.8,0.9c-0.8,0.6-1.3,1.5-1.3,2.6
		c0,1,0.3,1.9,1,2.6c0.7,0.7,1.5,1.1,2.6,1.1c1.7,0,3.5-1,5.6-2.9V586.9z"/>
	<path class="st0" d="M554.3,557.1h6.8v14.1h-6.8c-1.9-5.1-5.3-7.6-10-7.6c-3.9,0-6.9,1.3-8.9,4c-2,2.7-3,5.9-3,9.6
		c0,3.9,1.1,7.1,3.2,9.5c2.1,2.4,4.8,3.6,8.1,3.6c2.7,0,5-0.9,7.1-2.7c2-1.8,3.4-4.4,4.1-7.6l7.9,3.8c-3,9.3-9.6,14-19.8,14
		c-7.2,0-12.6-1.9-16.3-5.8c-3.7-3.9-5.5-8.8-5.5-14.7c0-4.2,1-7.9,2.9-11.1c1.9-3.2,4.5-5.6,7.7-7.2c3.2-1.6,6.7-2.4,10.6-2.4
		c4.8,0,8.8,1.2,12,3.7V557.1z"/>
	<path class="st0" d="M597.9,590.8v6.4h-13.4V595c-2.4,1.7-4.9,2.6-7.6,2.6c-2.8,0-5.2-0.8-7.2-2.4c-2-1.6-3-3.7-3-6.3
		c0-2.7,1.1-4.9,3.2-6.7c2.1-1.8,4.8-2.7,8.2-2.7c1.9,0,4,0.5,6.4,1.4v-1.7c0-1.4-0.5-2.6-1.4-3.5c-1-0.9-2.2-1.4-3.9-1.4
		c-2,0-3.7,0.7-5.1,2.2l-7.2-1.3c2.1-4.4,6.6-6.6,13.5-6.6c2.7,0,4.9,0.3,6.7,0.9c1.8,0.6,3.1,1.4,3.9,2.3c0.9,1,1.5,2,1.8,3.2
		c0.4,1.1,0.5,3,0.5,5.6v10.2H597.9z M584.5,586.9c-2.2-1.3-3.9-2-5.2-2c-1,0-1.9,0.3-2.8,0.9c-0.8,0.6-1.3,1.5-1.3,2.6
		c0,1,0.3,1.9,1,2.6c0.7,0.7,1.5,1.1,2.6,1.1c1.7,0,3.5-1,5.6-2.9V586.9z"/>
	<path class="st0" d="M602.1,597.2v-9.6h6.5c0.1,1.3,0.7,2.3,1.8,3.1c1.2,0.8,2.6,1.2,4.3,1.2c1.5,0,2.6-0.3,3.4-0.8
		c0.8-0.5,1.2-1.2,1.2-1.9c0-0.7-0.4-1.3-1.1-1.7c-0.7-0.4-2.2-0.8-4.4-1.2c-4.5-0.7-7.8-1.8-9.8-3.3c-2-1.5-3-3.5-3-5.9
		c0-2.3,0.9-4.2,2.8-5.8c1.9-1.6,4.4-2.4,7.5-2.4c2.5,0,4.9,0.5,7.1,1.4v-1h6.4v8.1h-6.4c-0.6-1.9-2.6-2.9-6.1-2.9
		c-2.6,0-3.9,0.7-3.9,2.1c0,0.5,0.3,0.9,0.8,1.2c0.5,0.3,1.9,0.6,4,1c3.4,0.6,6,1.2,7.7,1.8c1.7,0.6,3.1,1.6,4.1,3
		c1,1.4,1.5,3,1.5,4.9c0,2.7-1,5-2.9,6.7s-4.7,2.6-8.3,2.6c-3.3,0-5.6-0.7-6.8-2v1.4H602.1z"/>
	<path class="st0" d="M629.9,575.7v-6.4h3.5v-4.4l8.9-6.4v10.8h5.1v6.4h-5.1v12.1c0,1.1,0.1,1.8,0.4,2.2c0.3,0.4,0.9,0.6,1.9,0.6
		c0.8,0,1.8-0.2,2.8-0.6v6.2c-2.3,0.9-4.5,1.4-6.7,1.4c-4.9,0-7.3-2.4-7.3-7.3v-14.6H629.9z"/>
	<path class="st0" d="M670.3,590.8v6.4h-19.6v-6.4h5.2v-15H651v-6.4h13v7.1c0.5-2,1.6-3.8,3.4-5.3s3.9-2.2,6.3-2.2
		c0.4,0,0.9,0,1.4,0v8.4c-2.2,0-4.1,0.3-5.5,0.7c-1.4,0.5-2.6,1.6-3.5,3.3c-0.9,1.7-1.4,3.7-1.4,6v3.4H670.3z"/>
	<path class="st0" d="M700.1,588.8l6.9,2.2c-2.9,4.6-7.4,6.8-13.6,6.8c-4.9,0-8.8-1.3-11.5-3.9c-2.8-2.6-4.1-6-4.1-10.2
		c0-4.3,1.4-7.9,4.3-10.8c2.8-2.9,6.5-4.3,10.9-4.3c3.2,0,5.9,0.8,8.3,2.4c2.3,1.6,3.9,3.6,4.8,6c0.9,2.4,1.4,5.1,1.4,8h-20.8
		c0.1,2.5,0.9,4.3,2.4,5.4c1.5,1.1,3,1.6,4.7,1.6C695.8,592.1,697.9,591,700.1,588.8z M698.4,580.1c-0.2-1.6-0.8-2.9-1.8-4
		s-2.4-1.6-4.1-1.6c-3.3,0-5.2,1.9-5.7,5.6H698.4z"/>
	<path class="st0" d="M710.7,597.2v-6.4h4l6-7.2l-6-7.8h-4v-6.4h10.7l5,7.6l5.5-7.6h8.4v6.4h-3.7l-5.6,6.7l6.6,8.3h3.7v6.4h-10.7
		l-5.4-7.8l-5.8,7.8H710.7z"/>
	<path class="st0" d="M776.1,590.8v6.4h-13.4V595c-2.4,1.7-4.9,2.6-7.6,2.6c-2.8,0-5.2-0.8-7.2-2.4c-2-1.6-3-3.7-3-6.3
		c0-2.7,1.1-4.9,3.2-6.7c2.1-1.8,4.8-2.7,8.2-2.7c1.9,0,4,0.5,6.4,1.4v-1.7c0-1.4-0.5-2.6-1.4-3.5c-1-0.9-2.2-1.4-3.9-1.4
		c-2,0-3.7,0.7-5.1,2.2l-7.2-1.3c2.1-4.4,6.6-6.6,13.5-6.6c2.7,0,4.9,0.3,6.7,0.9c1.8,0.6,3.1,1.4,3.9,2.3c0.9,1,1.5,2,1.8,3.2
		c0.4,1.1,0.5,3,0.5,5.6v10.2H776.1z M762.7,586.9c-2.2-1.3-3.9-2-5.2-2c-1,0-1.9,0.3-2.8,0.9c-0.8,0.6-1.3,1.5-1.3,2.6
		c0,1,0.3,1.9,1,2.6c0.7,0.7,1.5,1.1,2.6,1.1c1.7,0,3.5-1,5.6-2.9V586.9z"/>
</g>
<g>
	<path class="st0" d="M187.9,659.3v-30.6h-5.3v-5.1h16.7v5.1h-5v30.6h12.5v-13.9h5.7v19h-29.9v-5.1H187.9z"/>
	<path class="st0" d="M244.1,659.4v5h-9.7v-3.5c-2.7,2.6-5.7,3.9-9,3.9c-2.6,0-4.8-0.8-6.7-2.5s-2.9-3.8-2.9-6.4c0-2.6,1-4.8,3-6.6
		s4.5-2.6,7.3-2.6c2.7,0,5.2,0.8,7.7,2.4v-2.8c0-1.4-0.1-2.6-0.4-3.3c-0.3-0.8-0.9-1.5-1.9-2.1c-1-0.6-2.3-0.9-3.9-0.9
		c-2.8,0-4.8,1.1-6.1,3.3l-5.3-1.4c2.4-4.4,6.4-6.6,12.2-6.6c2.1,0,4,0.3,5.5,0.9s2.7,1.3,3.5,2.2s1.3,1.9,1.5,2.9s0.4,2.7,0.4,5
		v13.1H244.1z M233.8,653.8c-2.4-1.9-4.8-2.8-7.3-2.8c-1.5,0-2.8,0.4-3.9,1.3c-1,0.9-1.6,2.1-1.6,3.5c0,1.3,0.5,2.4,1.4,3.3
		s2.1,1.3,3.7,1.3c2.7,0,5.2-1.1,7.6-3.4V653.8z"/>
	<path class="st0" d="M257,636v3.4c3.6-2.6,6.8-3.9,9.8-3.9c1.8,0,3.4,0.4,4.6,1.3s2,1.9,2.4,3.2c0.4,1.3,0.6,3.1,0.6,5.5v13.8h4.8
		v5h-10.3v-18.5c0-2.1-0.3-3.5-1-4.2s-1.4-1-2.4-1c-2.5,0-5.2,1.2-8.3,3.6v15.2h4.9v5h-15.4v-5h5V641h-5v-5H257z"/>
	<path class="st0" d="M281.7,664.4v-9.7h5v0.9c0.2,1.3,0.9,2.4,2.2,3.3s2.7,1.3,4.5,1.3c1.8,0,3.2-0.3,4.3-0.9
		c1.1-0.6,1.6-1.5,1.6-2.6c0-1.1-0.4-1.9-1.3-2.4c-0.9-0.5-2.7-1-5.3-1.4c-3.9-0.7-6.7-1.7-8.4-3.2c-1.7-1.5-2.5-3.4-2.5-5.7
		c0-2.4,0.9-4.3,2.7-5.9s4.2-2.4,7.2-2.4c2.7,0,5,0.6,6.9,1.7V636h5v9.4h-5v-1.7c-1.5-2.3-3.7-3.5-6.6-3.5c-1.5,0-2.7,0.3-3.6,1
		c-0.9,0.6-1.4,1.5-1.4,2.5c0,1.1,0.4,1.8,1.3,2.2c0.9,0.4,2.7,0.8,5.6,1.3c2.8,0.4,4.8,0.9,6.2,1.5c1.4,0.6,2.6,1.5,3.5,2.9
		c0.9,1.3,1.4,2.9,1.4,4.7c0,2.6-1,4.7-3,6.3c-2,1.6-4.6,2.3-7.9,2.3c-3,0-5.5-0.7-7.4-2.1v1.6H281.7z"/>
	<path class="st0" d="M308.3,664.4v-5h5v-30.8h-5v-5h10.5V640c2.8-3.2,6.2-4.8,10.3-4.8c3.9,0,7.2,1.3,9.8,4c2.6,2.7,4,6.2,4,10.6
		c0,4.2-1.3,7.8-3.9,10.6c-2.6,2.9-5.9,4.3-9.9,4.3c-2.3,0-4.3-0.5-6.2-1.5s-3.2-2.1-4-3.3v4.2H308.3z M319,650.3
		c0,2.9,0.9,5.3,2.7,7c1.8,1.7,3.9,2.6,6.3,2.6c2.5,0,4.6-0.9,6.4-2.8c1.8-1.8,2.7-4.3,2.7-7.4c0-3-0.9-5.3-2.7-7s-3.9-2.5-6.3-2.5
		c-2.4,0-4.5,0.9-6.3,2.6C319.9,644.6,319,647,319,650.3z"/>
	<path class="st0" d="M352.5,659.4V641h-5.7v-5H357v6.4c0.6-1.7,1.5-3,2.6-4.1s2.3-1.8,3.5-2.2c1.2-0.4,2.9-0.5,5.1-0.5h1.5v5.6
		h-1.1c-2.8,0-4.9,0.3-6.3,0.8c-1.4,0.6-2.4,1.6-3.1,3.1s-1,4.2-1,8v6.2h6.2v5h-17.5v-5H352.5z"/>
	<path class="st0" d="M378.1,659.4V641h-4.4v-5h10v23.4h4.4v5h-14.4v-5H378.1z M377.3,626.4c0-0.9,0.3-1.7,1-2.3
		c0.6-0.7,1.4-1,2.4-1c0.9,0,1.7,0.3,2.4,1s1,1.4,1,2.4s-0.3,1.7-1,2.4s-1.5,1-2.4,1c-0.9,0-1.7-0.3-2.4-1
		C377.6,628.1,377.3,627.3,377.3,626.4z"/>
	<path class="st0" d="M418.3,636v10.7h-5c-0.3-2.1-1.1-3.6-2.5-4.7s-3.1-1.6-4.9-1.6c-2.5,0-4.5,0.9-6.1,2.7s-2.3,4.1-2.3,7
		c0,2.7,0.7,5,2.2,7.1s3.6,3.1,6.4,3.1c3.9,0,6.7-1.9,8.5-5.6l4.6,2.2c-2.5,5.6-7,8.5-13.3,8.5c-4.5,0-8-1.5-10.6-4.6
		s-3.9-6.6-3.9-10.6c0-4.3,1.4-7.8,4.2-10.6s6.1-4.2,9.7-4.2c3.1,0,5.8,0.9,8,2.8v-2H418.3z"/>
	<path class="st0" d="M451.6,659.4v5h-9.7v-3.5c-2.7,2.6-5.7,3.9-9,3.9c-2.6,0-4.8-0.8-6.7-2.5s-2.9-3.8-2.9-6.4c0-2.6,1-4.8,3-6.6
		s4.5-2.6,7.3-2.6c2.7,0,5.2,0.8,7.7,2.4v-2.8c0-1.4-0.1-2.6-0.4-3.3s-0.9-1.5-1.9-2.1s-2.3-0.9-3.9-0.9c-2.8,0-4.8,1.1-6.1,3.3
		l-5.3-1.4c2.4-4.4,6.4-6.6,12.2-6.6c2.1,0,4,0.3,5.5,0.9s2.7,1.3,3.5,2.2s1.3,1.9,1.5,2.9s0.4,2.7,0.4,5v13.1H451.6z M441.3,653.8
		c-2.4-1.9-4.8-2.8-7.3-2.8c-1.5,0-2.8,0.4-3.9,1.3s-1.6,2.1-1.6,3.5c0,1.3,0.5,2.4,1.4,3.3s2.1,1.3,3.7,1.3c2.7,0,5.2-1.1,7.6-3.4
		V653.8z"/>
</g>
</svg>
